<svg xmlns="http://www.w3.org/2000/svg" xmlns:xlink="http://www.w3.org/1999/xlink" viewBox="0,0,256,256" width="64px" height="64px" fill-rule="nonzero"><g fill-opacity="0" fill="#ffffff" fill-rule="nonzero" stroke="none" stroke-width="1" stroke-linecap="butt" stroke-linejoin="miter" stroke-miterlimit="10" stroke-dasharray="" stroke-dashoffset="0" font-family="none" font-weight="none" font-size="none" text-anchor="none" style="mix-blend-mode: normal"><path d="M0,256v-256h256v256z" id="bgRectangle"></path></g><g fill="#ffffff" fill-rule="nonzero" stroke="none" stroke-width="1" stroke-linecap="butt" stroke-linejoin="miter" stroke-miterlimit="10" stroke-dasharray="" stroke-dashoffset="0" font-family="none" font-weight="none" font-size="none" text-anchor="none" style="mix-blend-mode: normal"><g transform="scale(4,4)"><path d="M23,4c-1.65234,0 -3,1.34766 -3,3v12c0,1.65234 1.34766,3 3,3h7v6h-19c-1.65234,0 -3,1.34766 -3,3v3h-5c-1.65234,0 -3,1.34766 -3,3v14c0,1.65234 1.34766,3 3,3h12c1.65234,0 3,-1.34766 3,-3v-14c0,-1.65234 -1.34766,-3 -3,-3h-5v-3c0,-0.55078 0.44922,-1 1,-1h19v10h-5c-1.65234,0 -3,1.34766 -3,3v14c0,1.65234 1.34766,3 3,3h12c1.65234,0 3,-1.34766 3,-3v-14c0,-1.65234 -1.34766,-3 -3,-3h-5v-10h19c0.55078,0 1,0.44922 1,1v3h-5c-1.65234,0 -3,1.34766 -3,3v14c0,1.65234 1.34766,3 3,3h12c1.65234,0 3,-1.34766 3,-3v-14c0,-1.65234 -1.34766,-3 -3,-3h-5v-3c0,-1.65234 -1.34766,-3 -3,-3h-19v-6h7c1.65234,0 3,-1.34766 3,-3v-12c0,-1.65234 -1.34766,-3 -3,-3zM23,6h16c0.55078,0 1,0.44922 1,1v12c0,0.55078 -0.44922,1 -1,1h-16c-0.55078,0 -1,-0.44922 -1,-1v-12c0,-0.55078 0.44922,-1 1,-1zM26,14c-0.55469,0 -1,0.44922 -1,1v2c0,0.55078 0.44531,1 1,1c0.55469,0 1,-0.44922 1,-1v-2c0,-0.55078 -0.44531,-1 -1,-1zM31,14c-0.55469,0 -1,0.44922 -1,1v2c0,0.55078 0.44531,1 1,1c0.55469,0 1,-0.44922 1,-1v-2c0,-0.55078 -0.44531,-1 -1,-1zM36,14c-0.55469,0 -1,0.44922 -1,1v2c0,0.55078 0.44531,1 1,1c0.55469,0 1,-0.44922 1,-1v-2c0,-0.55078 -0.44531,-1 -1,-1zM3,36h12c0.55078,0 1,0.44922 1,1v14c0,0.55078 -0.44922,1 -1,1h-12c-0.55078,0 -1,-0.44922 -1,-1v-14c0,-0.55078 0.44922,-1 1,-1zM47,36h12c0.55078,0 1,0.44922 1,1v14c0,0.55078 -0.44922,1 -1,1h-12c-0.55078,0 -1,-0.44922 -1,-1v-14c0,-0.55078 0.44922,-1 1,-1zM25,42h12c0.55078,0 1,0.44922 1,1v14c0,0.55078 -0.44922,1 -1,1h-12c-0.55078,0 -1,-0.44922 -1,-1v-14c0,-0.55078 0.44922,-1 1,-1zM5,48c-0.55469,0 -1,0.44922 -1,1c0,0.55078 0.44531,1 1,1h8c0.55469,0 1,-0.44922 1,-1c0,-0.55078 -0.44531,-1 -1,-1zM49,48c-0.55469,0 -1,0.44922 -1,1c0,0.55078 0.44531,1 1,1h8c0.55469,0 1,-0.44922 1,-1c0,-0.55078 -0.44531,-1 -1,-1zM27,54c-0.55469,0 -1,0.44922 -1,1c0,0.55078 0.44531,1 1,1h8c0.55469,0 1,-0.44922 1,-1c0,-0.55078 -0.44531,-1 -1,-1z"></path></g></g></svg>