<svg xmlns="http://www.w3.org/2000/svg" xmlns:xlink="http://www.w3.org/1999/xlink" viewBox="0,0,256,256" width="64px" height="64px" fill-rule="nonzero"><g fill-opacity="0" fill="#ffffff" fill-rule="nonzero" stroke="none" stroke-width="1" stroke-linecap="butt" stroke-linejoin="miter" stroke-miterlimit="10" stroke-dasharray="" stroke-dashoffset="0" font-family="none" font-weight="none" font-size="none" text-anchor="none" style="mix-blend-mode: normal"><path d="M0,256v-256h256v256z" id="bgRectangle"></path></g><g fill="#ffffff" fill-rule="nonzero" stroke="none" stroke-width="1" stroke-linecap="butt" stroke-linejoin="miter" stroke-miterlimit="10" stroke-dasharray="" stroke-dashoffset="0" font-family="none" font-weight="none" font-size="none" text-anchor="none" style="mix-blend-mode: normal"><g transform="scale(4,4)"><path d="M25,0.05859c-0.55078,0 -1,0.44531 -1,0.99609v6.94531h-15c-1.65234,0 -3,1.34766 -3,3c0,1.30078 0.83984,2.40234 2,2.81641v46.18359h-3c-0.55078,0 -1,0.44922 -1,1c0,0.55078 0.44922,1 1,1h53.10938c1.10156,0 2,-0.89844 2,-2v-2.44922c0,-1.91016 -1.05859,-3.62891 -2.76953,-4.48047l-7.85156,-3.89844c0.55078,-0.93359 1.01172,-1.93359 1.35156,-2.93359c0.85156,-0.38672 1.58984,-1.40625 1.94922,-2.76953c0.23047,-0.82812 0.26953,-1.66016 0.13281,-2.35937c-0.19141,-0.92187 -0.71094,-1.55859 -1.42187,-1.75c-0.03125,0 -0.05078,-0.00781 -0.07812,-0.01953c-0.08203,-0.48828 -0.21094,-0.99219 -0.40234,-1.55859c0.08984,0.02734 0.17188,0.05859 0.25,0.08984c0.33984,0.13672 0.74219,0.07813 1.03125,-0.16016c0.28125,-0.23047 0.41016,-0.60937 0.32813,-0.98047c-0.66406,-3.04297 -2.30078,-5.33984 -4.62891,-6.67969v-16.23437c1.16016,-0.41406 2,-1.51562 2,-2.81641c0,-1.65234 -1.34766,-3 -3,-3h-17v-3.94531c0,-0.55078 -0.44922,-1 -1,-1c-0.55078,0 -1,0.44922 -1,1v3.94531h-2v-6.94531c0,-0.55078 -0.44922,-0.99609 -1,-0.99609zM9,10h38c0.55078,0 1,0.44922 1,1c0,0.55078 -0.44922,1 -1,1h-38c-0.55078,0 -1,-0.44922 -1,-1c0,-0.55078 0.44922,-1 1,-1zM10,14h36v15.1875c-1.02734,-0.30859 -2.14453,-0.47656 -3.33984,-0.47656h-0.66016c-1.29687,0 -3.12891,0.33984 -4.50391,1.08203c-1.41797,-0.70703 -3.03516,-1.08984 -4.83984,-1.08984h-0.65625c-1.42969,0 -3.51953,0.42188 -4.92187,1.32813c-2.54297,0.14063 -4.34766,2.00781 -4.62891,4.83984c-0.17578,1.72266 -0.01172,3.00391 0.08594,3.76953c0.02734,0.23047 0.06641,0.51563 0.0625,0.57813c-0.00391,0.04297 -0.01172,0.08203 -0.01953,0.125c-0.02734,0.00781 -0.05078,0.01172 -0.07422,0.01953c-0.71484,0.19141 -1.23437,0.82813 -1.42187,1.75c-0.14062,0.69531 -0.09766,1.53125 0.12109,2.35547c0.36719,1.36328 1.10156,2.37891 1.95313,2.77734c0.35156,1.03125 0.81641,2.03516 1.37109,2.96875l-7.75391,3.85547c-1.71094,0.85156 -2.77344,2.56641 -2.77344,4.47656v2.45313h-4zM15,18c-0.55078,0 -1,0.44922 -1,1c0,0.55078 0.44922,1 1,1h2c0.55078,0 1,-0.44922 1,-1c0,-0.55078 -0.44922,-1 -1,-1zM23,18c-0.55078,0 -1,0.44922 -1,1c0,0.55078 0.44922,1 1,1h2c0.55078,0 1,-0.44922 1,-1c0,-0.55078 -0.44922,-1 -1,-1zM31,18c-0.55078,0 -1,0.44922 -1,1c0,0.55078 0.44922,1 1,1h2c0.55078,0 1,-0.44922 1,-1c0,-0.55078 -0.44922,-1 -1,-1zM39,18c-0.55078,0 -1,0.44922 -1,1c0,0.55078 0.44922,1 1,1h2c0.55078,0 1,-0.44922 1,-1c0,-0.55078 -0.44922,-1 -1,-1zM15,22c-0.55078,0 -1,0.44922 -1,1c0,0.55078 0.44922,1 1,1h2c0.55078,0 1,-0.44922 1,-1c0,-0.55078 -0.44922,-1 -1,-1zM23,22c-0.55078,0 -1,0.44922 -1,1c0,0.55078 0.44922,1 1,1h2c0.55078,0 1,-0.44922 1,-1c0,-0.55078 -0.44922,-1 -1,-1zM31,22c-0.55078,0 -1,0.44922 -1,1c0,0.55078 0.44922,1 1,1h2c0.55078,0 1,-0.44922 1,-1c0,-0.55078 -0.44922,-1 -1,-1zM39,22c-0.55078,0 -1,0.44922 -1,1c0,0.55078 0.44922,1 1,1h2c0.55078,0 1,-0.44922 1,-1c0,-0.55078 -0.44922,-1 -1,-1zM15,26c-0.55078,0 -1,0.44922 -1,1c0,0.55078 0.44922,1 1,1h2c0.55078,0 1,-0.44922 1,-1c0,-0.55078 -0.44922,-1 -1,-1zM23,26c-0.55078,0 -1,0.44922 -1,1c0,0.55078 0.44922,1 1,1h2c0.55078,0 1,-0.44922 1,-1c0,-0.55078 -0.44922,-1 -1,-1zM15,30c-0.55078,0 -1,0.44922 -1,1c0,0.55078 0.44922,1 1,1h2c0.55078,0 1,-0.44922 1,-1c0,-0.55078 -0.44922,-1 -1,-1zM32,30.70703h0.65625c0.66406,0 1.28906,0.07422 1.89063,0.1875c-1.16016,0.83203 -1.92187,2.21875 -2.09766,3.97656c-0.17187,1.73047 -0.01172,3 0.08984,3.76953c0.03125,0.23047 0.05859,0.51953 0.05859,0.57813c-0.00781,0.04297 -0.00781,0.08203 -0.01953,0.125c-0.03125,0.00781 -0.05078,0.01563 -0.07812,0.01563c-0.71094,0.19141 -1.23047,0.83203 -1.42187,1.75c-0.14062,0.70313 -0.09766,1.53125 0.12891,2.35938c0.36328,1.36328 1.10156,2.38281 1.94922,2.76953c0.35156,1.02344 0.8125,2.03125 1.375,2.98047l-7.76172,3.85156c-1.71094,0.84766 -2.76953,2.57031 -2.76953,4.48047v2.44922h-8v-2.45312c0,-1.14453 0.63672,-2.17578 1.66406,-2.6875l8.75781,-4.35156c0.01563,-0.00781 0.02344,-0.02344 0.03906,-0.03125c0.03125,-0.01562 0.0625,-0.02344 0.08984,-0.04297c0.03906,-0.02734 0.05859,-0.07031 0.08984,-0.10156c0.04688,-0.04297 0.08984,-0.08203 0.125,-0.12891c0.04297,-0.05859 0.07422,-0.11719 0.10156,-0.17578c0.02344,-0.05859 0.05078,-0.10937 0.06641,-0.16797c0.01563,-0.06641 0.01953,-0.12891 0.02344,-0.19531c0.00391,-0.0625 0.00391,-0.12109 -0.00391,-0.18359c-0.00781,-0.06641 -0.02734,-0.12891 -0.05078,-0.19141c-0.01562,-0.03906 -0.01172,-0.08203 -0.03125,-0.12109c-0.01562,-0.02344 -0.03516,-0.03906 -0.05078,-0.0625c-0.01172,-0.01953 -0.01562,-0.04687 -0.03125,-0.07031c-0.82031,-1.16016 -1.47266,-2.50781 -1.88281,-3.89453c-0.12891,-0.42578 -0.46094,-0.70703 -0.90234,-0.70703c-0.13281,-0.04687 -0.60547,-0.50391 -0.86719,-1.48047c-0.19531,-0.73047 -0.14453,-1.26953 -0.07031,-1.54297c0.27344,0.11719 0.58594,0.10938 0.85547,-0.02734c0.31641,-0.16406 0.52344,-0.48437 0.54297,-0.84375c0.01563,-0.32812 0.04688,-0.65625 0.10156,-0.97266c0.05859,-0.33203 0.01563,-0.6875 -0.04687,-1.17969c-0.09375,-0.72266 -0.23047,-1.81641 -0.08203,-3.3125c0.19531,-1.94141 1.26953,-3.05078 2.96484,-3.05078c0.21484,0 0.42578,-0.07031 0.60156,-0.19922c0.83594,-0.625 2.58984,-1.11719 3.99609,-1.11719zM42,30.71094h0.66016c3.66016,0 6.35156,1.77734 7.57031,4.94922c-0.35937,0.03125 -0.71094,0.14844 -0.99219,0.41797c-0.26953,0.26172 -0.65625,0.84375 -0.27734,1.88281c0.39844,1.07031 0.53906,1.6875 0.57813,2.57813c0.01172,0.35938 0.25,0.66016 0.57031,0.83203c0.25,0.11719 0.55078,0.12891 0.82031,0.03125c0.07813,0.26953 0.12891,0.81641 -0.07031,1.54688c-0.26172,0.98047 -0.73047,1.42969 -0.80859,1.48047c-0.44141,0 -0.83203,0.28906 -0.96094,0.71094c-0.30859,1.05859 -0.78906,2.14844 -1.40234,3.14063c-0.34766,0.58984 -0.74609,1.14063 -1.1875,1.64063c-1.26172,1.46875 -2.82812,2.48047 -4.5,2.48047c-1.64844,0 -3.21094,-0.99219 -4.46875,-2.44141c-0.44141,-0.5 -0.83984,-1.05078 -1.20312,-1.64062c-0.61719,-1.01172 -1.09766,-2.10156 -1.41797,-3.17969c-0.12891,-0.42187 -0.46094,-0.71094 -0.91016,-0.71094c-0.12891,-0.05078 -0.59766,-0.5 -0.85937,-1.48047c-0.19922,-0.73047 -0.14844,-1.26953 -0.07031,-1.53906c0.26953,0.12109 0.57813,0.10938 0.85156,-0.03125c0.31641,-0.15625 0.52734,-0.48047 0.53906,-0.83984c0.01953,-0.32812 0.05078,-0.66016 0.10938,-0.96875c0.05859,-0.33984 0.00781,-0.69141 -0.05078,-1.17969c-0.08984,-0.73047 -0.23047,-1.82031 -0.08203,-3.32031c0.19141,-1.94141 1.27344,-3.05078 2.96484,-3.05078c0.21875,0 0.42578,-0.07031 0.59766,-0.19922c0.83984,-0.62109 2.60156,-1.10937 4,-1.10937zM15,34c-0.55078,0 -1,0.44922 -1,1c0,0.55078 0.44922,1 1,1h2c0.55078,0 1,-0.44922 1,-1c0,-0.55078 -0.44922,-1 -1,-1zM38.42578,34.05469c-0.58984,-0.05078 -1.1875,0.22266 -1.53125,0.74219l-1.05078,1.60156c-0.30469,0.46094 -0.17969,1.08203 0.28125,1.38281c0.17188,0.11328 0.36328,0.16797 0.55078,0.16797c0.32422,0 0.64453,-0.16016 0.83594,-0.44922l0.89063,-1.35547l0.75781,0.37109c1.92188,0.9375 4.06641,1.43359 6.20313,1.43359h1.68359c0.55078,0 1,-0.44922 1,-1c0,-0.55469 -0.44922,-1 -1,-1h-1.68359c-1.83203,0 -3.67578,-0.42578 -5.32812,-1.23047l-1.02734,-0.5c-0.1875,-0.09375 -0.38672,-0.14844 -0.58203,-0.16406zM15,38c-0.55078,0 -1,0.44922 -1,1c0,0.55078 0.44922,1 1,1h2c0.55078,0 1,-0.44922 1,-1c0,-0.55078 -0.44922,-1 -1,-1zM15,42c-0.55078,0 -1,0.44922 -1,1c0,0.55078 0.44922,1 1,1h2c0.55078,0 1,-0.44922 1,-1c0,-0.55078 -0.44922,-1 -1,-1zM15,46c-0.55078,0 -1,0.44922 -1,1c0,0.55078 0.44922,1 1,1h2c0.55078,0 1,-0.44922 1,-1c0,-0.55078 -0.44922,-1 -1,-1zM48.32813,50.82813l8.12109,4.03125c1.01953,0.51172 1.66016,1.54297 1.66016,2.69141v2.44922h-32.10937v-2.44922c0,-1.14844 0.64063,-2.17969 1.66016,-2.69141l8.03906,-3.98828c1.66016,2.06641 3.85938,3.53125 6.30078,3.53125c2.46094,0 4.67188,-1.48047 6.32813,-3.57422z"></path></g></g></svg>