<svg xmlns="http://www.w3.org/2000/svg" xmlns:xlink="http://www.w3.org/1999/xlink" viewBox="0,0,256,256" width="64px" height="64px" fill-rule="nonzero"><defs><linearGradient x1="42" y1="10.833" x2="42" y2="32.365" gradientUnits="userSpaceOnUse" id="color-1"><stop offset="0" stop-color="#e8e8e8"></stop><stop offset="1" stop-color="#666666"></stop></linearGradient><linearGradient x1="32" y1="4.75" x2="32" y2="59.014" gradientUnits="userSpaceOnUse" id="color-2"><stop offset="0" stop-color="#b0b0b0"></stop><stop offset="1" stop-color="#2e2e2e"></stop></linearGradient><linearGradient x1="32" y1="22.833" x2="32" y2="40.716" gradientUnits="userSpaceOnUse" id="color-3"><stop offset="0" stop-color="#e8e8e8"></stop><stop offset="1" stop-color="#666666"></stop></linearGradient></defs><g fill-opacity="0" fill="#161616" fill-rule="nonzero" stroke="none" stroke-width="1" stroke-linecap="butt" stroke-linejoin="miter" stroke-miterlimit="10" stroke-dasharray="" stroke-dashoffset="0" font-family="none" font-weight="none" font-size="none" text-anchor="none" style="mix-blend-mode: normal"><path d="M0,256v-256h256v256z" id="bgRectangle"></path></g><g fill="none" fill-rule="nonzero" stroke="none" stroke-width="1" stroke-linecap="butt" stroke-linejoin="miter" stroke-miterlimit="10" stroke-dasharray="" stroke-dashoffset="0" font-family="none" font-weight="none" font-size="none" text-anchor="none" style="mix-blend-mode: normal"><g transform="scale(4,4)"><path d="M52,32h-2c0,-9.925 -8.075,-18 -18,-18v-2c11.028,0 20,8.972 20,20z" fill="url(#color-1)"></path><path d="M32,6c-14.336,0 -26,11.664 -26,26c0,14.336 11.664,26 26,26c14.336,0 26,-11.664 26,-26c0,-14.336 -11.664,-26 -26,-26zM42.568,41.154c1.926,-2.22 3.16,-5.047 3.381,-8.154h10.025c-0.242,5.864 -2.595,11.191 -6.322,15.239zM20,32c0,-6.617 5.383,-12 12,-12c6.617,0 12,5.383 12,12c0,6.617 -5.383,12 -12,12c-6.617,0 -12,-5.383 -12,-12zM55.975,31h-10.026c-0.492,-6.921 -6.028,-12.457 -12.949,-12.949v-10.026c12.439,0.513 22.462,10.536 22.975,22.975zM31,8.025v10.025c-7.253,0.517 -13,6.568 -13,13.95c0,3.501 1.3,6.697 3.432,9.154l-7.084,7.084c-3.938,-4.276 -6.348,-9.98 -6.348,-16.238c0,-12.898 10.229,-23.448 23,-23.975zM15.761,49.653l7.084,-7.084c2.458,2.131 5.654,3.431 9.155,3.431c3.501,0 6.697,-1.3 9.154,-3.432l7.084,7.084c-4.276,3.938 -9.98,6.348 -16.238,6.348c-6.258,0 -11.962,-2.41 -16.239,-6.347z" fill="url(#color-2)"></path><path d="M32,24c-4.41828,0 -8,3.58172 -8,8c0,4.41828 3.58172,8 8,8c4.41828,0 8,-3.58172 8,-8c0,-4.41828 -3.58172,-8 -8,-8z" fill="url(#color-3)"></path></g></g></svg>