<svg xmlns="http://www.w3.org/2000/svg" xmlns:xlink="http://www.w3.org/1999/xlink" viewBox="0,0,256,256" width="25px" height="25px" fill-rule="nonzero"><g fill-opacity="0" fill="#dddddd" fill-rule="nonzero" stroke="none" stroke-width="1" stroke-linecap="butt" stroke-linejoin="miter" stroke-miterlimit="10" stroke-dasharray="" stroke-dashoffset="0" font-family="none" font-weight="none" font-size="none" text-anchor="none" style="mix-blend-mode: normal"><path d="M0,256v-256h256v256z" id="bgRectangle"></path></g><g fill="none" fill-rule="nonzero" stroke="none" stroke-width="1" stroke-linecap="butt" stroke-linejoin="miter" stroke-miterlimit="10" stroke-dasharray="" stroke-dashoffset="0" font-family="none" font-weight="none" font-size="none" text-anchor="none" style="mix-blend-mode: normal"><g transform="scale(2,2)"><path d="M113,67.7c0,19.9 -21.4,48 -49,48c-27.6,0 -49,-28.1 -49,-48c0,0 21.4,-24 49,-24c27.6,0 49,24 49,24z" fill-opacity="0" fill="#ffffff"></path><circle cx="64" cy="79" r="15" fill="#ffffff"></circle><path d="M124,86.6c-1.1,0 -2.1,-0.6 -2.6,-1.6c-12.8,-23.3 -35.8,-39 -57.4,-39c-21.6,0 -44.6,15.7 -57.4,39.1c-0.8,1.5 -2.6,2 -4.1,1.2c-1.5,-0.8 -2,-2.6 -1.2,-4.1c14,-25.6 38.6,-42.2 62.7,-42.2c24.1,0 48.7,16.6 62.6,42.2c0.8,1.5 0.3,3.3 -1.2,4.1c-0.4,0.2 -0.9,0.3 -1.4,0.3z" fill="#ffffff"></path><path d="M64,118.3c-18.7,0 -36.1,-12.1 -47.6,-33.3c-0.8,-1.5 -0.3,-3.3 1.2,-4.1c1.5,-0.8 3.3,-0.3 4.1,1.2c10.5,19.2 25.9,30.1 42.4,30.1c16.5,0 31.9,-11 42.4,-30.1c0.8,-1.5 2.6,-2 4.1,-1.2c1.5,0.8 2,2.6 1.2,4.1c-11.7,21.2 -29.1,33.3 -47.8,33.3z" fill="#ffffff"></path><path d="M64,31c-1.7,0 -3,-1.3 -3,-3v-18c0,-1.7 1.3,-3 3,-3c1.7,0 3,1.3 3,3v18c0,1.7 -1.3,3 -3,3z" fill="#ffffff"></path><path d="M24.1,42.5c-0.7,0 -1.4,-0.3 -2,-0.8l-6.1,-5.5c-1.2,-1.1 -1.3,-3 -0.2,-4.2c1.1,-1.2 3,-1.3 4.2,-0.2l6.1,5.5c1.2,1.1 1.3,3 0.2,4.2c-0.6,0.7 -1.4,1 -2.2,1z" fill="#ffffff"></path><path d="M103.7,42.4c-0.8,0 -1.5,-0.3 -2.1,-0.9c-1.2,-1.2 -1.2,-3.1 0,-4.2l5.3,-5.4c1.2,-1.2 3.1,-1.2 4.2,0c1.2,1.2 1.2,3.1 0,4.2l-5.3,5.4c-0.5,0.6 -1.3,0.9 -2.1,0.9z" fill="#ffffff"></path><path d="M84.1,33.5c-0.4,0 -0.8,-0.1 -1.1,-0.2c-1.5,-0.6 -2.3,-2.4 -1.6,-3.9l6.1,-14.8c0.6,-1.5 2.4,-2.3 3.9,-1.6c1.5,0.6 2.3,2.4 1.6,3.9l-6.1,14.8c-0.5,1.1 -1.6,1.8 -2.8,1.8z" fill="#ffffff"></path><path d="M44,33.6c-1.2,0 -2.3,-0.7 -2.8,-1.9l-6.1,-14.7c-0.6,-1.5 0.1,-3.3 1.6,-3.9c1.5,-0.6 3.3,0.1 3.9,1.6l6.1,14.8c0.6,1.5 -0.1,3.3 -1.6,3.9c-0.4,0.2 -0.7,0.2 -1.1,0.2z" fill="#ffffff"></path></g></g></svg>