<svg xmlns="http://www.w3.org/2000/svg" xmlns:xlink="http://www.w3.org/1999/xlink" viewBox="0,0,256,256" width="64px" height="64px" fill-rule="nonzero"><defs><clipPath id="clip-1"><path d="M0,256v-256h256v256h-46.93479c21.17818,-9.25267 35.93479,-30.36435 35.93479,-55c0,-33.2 -26.8,-60 -60,-60c-33.2,0 -60,26.8 -60,60c0,24.63565 14.75661,45.74733 35.93479,55z" id="overlayBgMask" fill="none"></path></clipPath></defs><g fill-opacity="0" fill="#ffffff" fill-rule="nonzero" stroke="none" stroke-width="1" stroke-linecap="butt" stroke-linejoin="miter" stroke-miterlimit="10" stroke-dasharray="" stroke-dashoffset="0" font-family="none" font-weight="none" font-size="none" text-anchor="none" style="mix-blend-mode: normal"><path d="M0,256v-256h256v256z" id="bgRectangle"></path></g><g clip-path="url(#clip-1)" fill="none" fill-rule="nonzero" stroke="none" stroke-width="1" stroke-linecap="butt" stroke-linejoin="miter" stroke-miterlimit="10" stroke-dasharray="" stroke-dashoffset="0" font-family="none" font-weight="none" font-size="none" text-anchor="none" style="mix-blend-mode: normal"><g transform="scale(4,4)" fill="#ffffff"><path d="M16,5c-1.656,0 -3,1.344 -3,3v3h-5c-1.656,0 -3,1.344 -3,3v42c0,1.656 1.344,3 3,3h48c1.656,0 3,-1.344 3,-3v-42c0,-1.656 -1.344,-3 -3,-3h-5v-3c0,-1.656 -1.344,-3 -3,-3c-1.656,0 -3,1.344 -3,3v3h-10v-3c0,-1.656 -1.344,-3 -3,-3c-1.656,0 -3,1.344 -3,3v3h-10v-3c0,-1.656 -1.344,-3 -3,-3zM16,7c0.551,0 1,0.449 1,1v8c0,0.551 -0.449,1 -1,1c-0.551,0 -1,-0.449 -1,-1v-8c0,-0.551 0.449,-1 1,-1zM32,7c0.551,0 1,0.449 1,1v8c0,0.551 -0.449,1 -1,1c-0.551,0 -1,-0.449 -1,-1v-8c0,-0.551 0.449,-1 1,-1zM48,7c0.551,0 1,0.449 1,1v8c0,0.551 -0.449,1 -1,1c-0.551,0 -1,-0.449 -1,-1v-8c0,-0.551 0.449,-1 1,-1zM8,13h5v3c0,1.656 1.344,3 3,3c1.656,0 3,-1.344 3,-3v-3h10v3c0,1.656 1.344,3 3,3c1.656,0 3,-1.344 3,-3v-3h10v3c0,1.656 1.344,3 3,3c1.656,0 3,-1.344 3,-3v-3h5c0.551,0 1,0.449 1,1v7c-0.551,0 -1,0.449 -1,1v2c0,0.551 0.449,1 1,1v31c0,0.551 -0.449,1 -1,1h-48c-0.551,0 -1,-0.449 -1,-1v-31c0.551,0 1,-0.449 1,-1v-2c0,-0.551 -0.449,-1 -1,-1v-7c0,-0.551 0.449,-1 1,-1zM12,21c-0.551,0 -1,0.449 -1,1v2c0,0.551 0.449,1 1,1c0.551,0 1,-0.449 1,-1v-2c0,-0.551 -0.449,-1 -1,-1zM17,21c-0.551,0 -1,0.449 -1,1v2c0,0.551 0.449,1 1,1c0.551,0 1,-0.449 1,-1v-2c0,-0.551 -0.449,-1 -1,-1zM22,21c-0.551,0 -1,0.449 -1,1v2c0,0.551 0.449,1 1,1c0.551,0 1,-0.449 1,-1v-2c0,-0.551 -0.449,-1 -1,-1zM27,21c-0.551,0 -1,0.449 -1,1v2c0,0.551 0.449,1 1,1c0.551,0 1,-0.449 1,-1v-2c0,-0.551 -0.449,-1 -1,-1zM32,21c-0.551,0 -1,0.449 -1,1v2c0,0.551 0.449,1 1,1c0.551,0 1,-0.449 1,-1v-2c0,-0.551 -0.449,-1 -1,-1zM37,21c-0.551,0 -1,0.449 -1,1v2c0,0.551 0.449,1 1,1c0.551,0 1,-0.449 1,-1v-2c0,-0.551 -0.449,-1 -1,-1zM42,21c-0.551,0 -1,0.449 -1,1v2c0,0.551 0.449,1 1,1c0.551,0 1,-0.449 1,-1v-2c0,-0.551 -0.449,-1 -1,-1zM47,21c-0.551,0 -1,0.449 -1,1v2c0,0.551 0.449,1 1,1c0.551,0 1,-0.449 1,-1v-2c0,-0.551 -0.449,-1 -1,-1zM52,21c-0.551,0 -1,0.449 -1,1v2c0,0.551 0.449,1 1,1c0.551,0 1,-0.449 1,-1v-2c0,-0.551 -0.449,-1 -1,-1zM14,28c-0.552,0 -1,0.448 -1,1v18c0,0.552 0.448,1 1,1h36c0.552,0 1,-0.448 1,-1v-18c0,-0.552 -0.448,-1 -1,-1zM15,30h7v7h-7zM24,30h7v7h-7zM33,30h7v7h-7zM42,30h7v7h-7zM15,39h7v7h-7zM24,39h7v7h-7zM33,39h7v7h-7zM42,39h7v7h-7zM10,51c-0.551,0 -1,0.449 -1,1c0,0.551 0.449,1 1,1h44c0.551,0 1,-0.449 1,-1c0,-0.551 -0.449,-1 -1,-1z"></path></g></g><g fill="#ffffff" fill-rule="nonzero" stroke="none" stroke-width="1" stroke-linecap="butt" stroke-linejoin="miter" stroke-miterlimit="10" stroke-dasharray="" stroke-dashoffset="0" font-family="none" font-weight="none" font-size="none" text-anchor="none" style="mix-blend-mode: normal"><g transform="translate(133,149) scale(4,4)" id="overlay"><path d="M13,0c-7.168,0 -13,5.832 -13,13c0,7.168 5.832,13 13,13c7.168,0 13,-5.832 13,-13c0,-7.168 -5.832,-13 -13,-13zM13,24c-6.065,0 -11,-4.935 -11,-11c0,-6.065 4.935,-11 11,-11c6.065,0 11,4.935 11,11c0,6.065 -4.935,11 -11,11zM10,10c0,1.103 0.897,2 2,2v-2c0,-0.552 0.447,-1 1,-1c0.553,0 1,0.448 1,1v2c2.206,0 4,1.794 4,4c0,2.206 -1.794,4 -4,4v1c0,0.552 -0.447,1 -1,1c-0.553,0 -1,-0.448 -1,-1v-1c-2.206,0 -4,-1.794 -4,-4c0,-0.552 0.447,-1 1,-1c0.553,0 1,0.448 1,1c0,1.103 0.897,2 2,2v-2c0,-0.552 0.447,-1 1,-1c0.553,0 1,0.448 1,1v2c1.103,0 2,-0.897 2,-2c0,-1.103 -0.897,-2 -2,-2h-2c-2.206,0 -4,-1.794 -4,-4c0,-2.206 1.794,-4 4,-4v-1c0,-0.552 0.447,-1 1,-1c0.553,0 1,0.448 1,1v1c2.206,0 4,1.794 4,4c0,0.552 -0.447,1 -1,1c-0.553,0 -1,-0.448 -1,-1c0,-1.103 -0.897,-2 -2,-2h-2c-1.103,0 -2,0.897 -2,2z"></path></g></g></svg>