<svg xmlns="http://www.w3.org/2000/svg" xmlns:xlink="http://www.w3.org/1999/xlink" viewBox="0,0,256,256" width="48px" height="48px" fill-rule="nonzero"><g fill-opacity="0" fill="#ffffff" fill-rule="nonzero" stroke="none" stroke-width="1" stroke-linecap="butt" stroke-linejoin="miter" stroke-miterlimit="10" stroke-dasharray="" stroke-dashoffset="0" font-family="none" font-weight="none" font-size="none" text-anchor="none" style="mix-blend-mode: normal"><path d="M0,256v-256h256v256z" id="bgRectangle"></path></g><g fill="#ffffff" fill-rule="nonzero" stroke="none" stroke-width="1" stroke-linecap="butt" stroke-linejoin="miter" stroke-miterlimit="10" stroke-dasharray="" stroke-dashoffset="0" font-family="none" font-weight="none" font-size="none" text-anchor="none" style="mix-blend-mode: normal"><g transform="scale(5.33333,5.33333)"><path d="M9.13086,7c-2.74952,0 -5,2.25048 -5,5v24c0,2.74997 2.25003,5 5,5h30c2.74997,0 5,-2.25003 5,-5v-20c-0.00006,-0.55226 -0.44774,-0.99994 -1,-1h-34c-0.36064,-0.0051 -0.69608,0.18438 -0.87789,0.49587c-0.18181,0.3115 -0.18181,0.69676 0,1.00825c0.18181,0.3115 0.51725,0.50097 0.87789,0.49587h33v19c0,1.67003 -1.32997,3 -3,3h-30c-1.67003,0 -3,-1.32997 -3,-3v-24c0,-1.66848 1.33152,-3 3,-3h30c1.66848,0 3,1.33152 3,3c-0.0051,0.36064 0.18438,0.69608 0.49587,0.87789c0.3115,0.18181 0.69676,0.18181 1.00825,0c0.3115,-0.18181 0.50097,-0.51725 0.49587,-0.87789c0,-2.74952 -2.25048,-5 -5,-5zM28.0918,20c-0.37849,0.01424 -0.71646,0.24106 -0.87305,0.58594l-4.54492,10l-6.04687,-3.45508c-0.41687,-0.23789 -0.94397,-0.14608 -1.25586,0.21875l-6,7c-0.24875,0.26892 -0.33057,0.65232 -0.21326,0.99936c0.11731,0.34704 0.41496,0.60217 0.77586,0.66502c0.3609,0.06285 0.72727,-0.07664 0.95499,-0.3636l5.46289,-6.37305l6.2832,3.5918c0.24429,0.1394 0.53598,0.16948 0.80358,0.08288c0.2676,-0.0866 0.48636,-0.28188 0.60267,-0.53796l4.35156,-9.57227l4.97852,5.80859c0.35053,0.40879 0.96182,0.46664 1.38281,0.13086l5,-4c0.28779,-0.22011 0.43403,-0.57867 0.38226,-0.93727c-0.05177,-0.3586 -0.29344,-0.66116 -0.63173,-0.7909c-0.3383,-0.12974 -0.7203,-0.06636 -0.99858,0.16567l-4.24609,3.39648l-5.37109,-6.26562c-0.19835,-0.23205 -0.49181,-0.3608 -0.79687,-0.34961z"></path></g></g></svg>