<svg xmlns="http://www.w3.org/2000/svg" xmlns:xlink="http://www.w3.org/1999/xlink" viewBox="0,0,256,256" width="64px" height="64px" fill-rule="nonzero"><g fill-opacity="0" fill="#ffffff" fill-rule="nonzero" stroke="none" stroke-width="1" stroke-linecap="butt" stroke-linejoin="miter" stroke-miterlimit="10" stroke-dasharray="" stroke-dashoffset="0" font-family="none" font-weight="none" font-size="none" text-anchor="none" style="mix-blend-mode: normal"><path d="M0,256v-256h256v256z" id="bgRectangle"></path></g><g fill="#ffffff" fill-rule="nonzero" stroke="none" stroke-width="1" stroke-linecap="butt" stroke-linejoin="miter" stroke-miterlimit="10" stroke-dasharray="" stroke-dashoffset="0" font-family="none" font-weight="none" font-size="none" text-anchor="none" style="mix-blend-mode: normal"><g transform="scale(4,4)"><path d="M7,8.05664c-1.656,0 -3,1.344 -3,3v42c0,1.656 1.344,3 3,3h50c1.656,0 3,-1.344 3,-3v-42c0,-1.657 -1.344,-3 -3,-3zM7,10.05664h50c0.551,0 1,0.449 1,1v42c0,0.551 -0.449,1 -1,1h-50c-0.551,0 -1,-0.449 -1,-1v-33h41c0.551,0 1,-0.449 1,-1c0,-0.551 -0.449,-1 -1,-1h-41v-7c0,-0.551 0.449,-1 1,-1zM10,12.05664c-0.551,0 -1,0.449 -1,1v2c0,0.551 0.449,1 1,1c0.551,0 1,-0.449 1,-1v-2c0,-0.551 -0.449,-1 -1,-1zM15,12.05664c-0.551,0 -1,0.449 -1,1v2c0,0.551 0.449,1 1,1c0.551,0 1,-0.449 1,-1v-2c0,-0.551 -0.449,-1 -1,-1zM20,12.05664c-0.551,0 -1,0.449 -1,1v2c0,0.551 0.449,1 1,1c0.551,0 1,-0.449 1,-1v-2c0,-0.551 -0.449,-1 -1,-1zM25,12.05664c-0.551,0 -1,0.449 -1,1v2c0,0.551 0.449,1 1,1c0.551,0 1,-0.449 1,-1v-2c0,-0.551 -0.449,-1 -1,-1zM30,12.05664c-0.551,0 -1,0.449 -1,1v2c0,0.551 0.449,1 1,1c0.551,0 1,-0.449 1,-1v-2c0,-0.551 -0.449,-1 -1,-1zM35,12.05664c-0.551,0 -1,0.449 -1,1v2c0,0.551 0.449,1 1,1c0.551,0 1,-0.449 1,-1v-2c0,-0.551 -0.449,-1 -1,-1zM40,12.05664c-0.551,0 -1,0.449 -1,1v2c0,0.551 0.449,1 1,1c0.551,0 1,-0.449 1,-1v-2c0,-0.551 -0.449,-1 -1,-1zM45,12.05664c-0.551,0 -1,0.449 -1,1v2c0,0.551 0.449,1 1,1c0.551,0 1,-0.449 1,-1v-2c0,-0.551 -0.449,-1 -1,-1zM50,12.05664c-0.551,0 -1,0.449 -1,1v2c0,0.55 0.449,1 1,1c0.551,0 1,-0.449 1,-1v-2c0,-0.551 -0.449,-1 -1,-1zM55,12.05664c-0.551,0 -1,0.449 -1,1v2c0,0.551 0.449,1 1,1c0.551,0 1,-0.449 1,-1v-2c0,-0.551 -0.449,-1 -1,-1zM51,18.05664c-0.551,0 -1,0.449 -1,1c0,0.551 0.449,1 1,1h4c0.551,0 1,-0.449 1,-1c0,-0.551 -0.449,-1 -1,-1zM55,30.05664c-0.25575,0 -0.51153,0.09747 -0.70703,0.29297l-7.00586,7.00781c-0.39156,-0.18769 -0.82474,-0.30078 -1.28711,-0.30078c-0.72264,0 -1.378,0.26802 -1.89648,0.69531l-5.16406,-3.09766c0.03929,-0.19335 0.06055,-0.39289 0.06055,-0.59766c0,-1.654 -1.346,-3 -3,-3c-1.654,0 -3,1.346 -3,3c0,0.40635 0.08338,0.79271 0.23047,1.14648l-5.80859,5.22852c-0.42522,-0.23147 -0.90469,-0.375 -1.42187,-0.375c-0.92889,0 -1.75003,0.43442 -2.30078,1.09961l-5.70117,-2.07422c0.00007,-0.00866 0.00195,-0.01671 0.00195,-0.02539c0,-1.654 -1.346,-3 -3,-3c-1.654,0 -3,1.346 -3,3c0,0.4627 0.11479,0.89534 0.30273,1.28711c-0.00283,0.00277 -0.00696,0.00305 -0.00976,0.00586l-4,4c-0.391,0.391 -0.391,1.02306 0,1.41406c0.195,0.195 0.45103,0.29297 0.70703,0.29297c0.256,0 0.51203,-0.09797 0.70703,-0.29297l4,-4c0.0028,-0.0028 0.0031,-0.00694 0.00586,-0.00977c0.39177,0.18795 0.82441,0.30273 1.28711,0.30273c0.92961,0 1.752,-0.43353 2.30273,-1.09961l5.69922,2.07227c-0.00009,0.00932 -0.00195,0.018 -0.00195,0.02734c0,1.654 1.346,3 3,3c1.654,0 3,-1.346 3,-3c0,-0.407 -0.08293,-0.7942 -0.23047,-1.14844l5.80859,-5.22656c0.42522,0.23147 0.90469,0.375 1.42188,0.375c0.7234,0 1.37971,-0.26721 1.89844,-0.69531l5.16211,3.0957c-0.03954,0.19393 -0.06055,0.39418 -0.06055,0.59961c0,1.654 1.346,3 3,3c1.654,0 3,-1.346 3,-3c0,-0.46176 -0.11355,-0.89399 -0.30078,-1.28516l7.00781,-7.00781c0.391,-0.391 0.391,-1.02306 0,-1.41406c-0.1955,-0.1955 -0.45128,-0.29297 -0.70703,-0.29297zM36,33.05664c0.551,0 1,0.448 1,1c0,0.552 -0.449,1 -1,1c-0.551,0 -1,-0.448 -1,-1c0,-0.552 0.449,-1 1,-1zM15,38.05664c0.551,0 1,0.448 1,1c0,0.552 -0.449,1 -1,1c-0.551,0 -1,-0.448 -1,-1c0,-0.552 0.449,-1 1,-1zM46,39.05664c0.551,0 1,0.448 1,1c0,0.552 -0.449,1 -1,1c-0.551,0 -1,-0.448 -1,-1c0,-0.552 0.449,-1 1,-1zM26,42.05664c0.551,0 1,0.448 1,1c0,0.552 -0.449,1 -1,1c-0.551,0 -1,-0.448 -1,-1c0,-0.552 0.449,-1 1,-1z"></path></g></g></svg>