<svg xmlns="http://www.w3.org/2000/svg" xmlns:xlink="http://www.w3.org/1999/xlink" viewBox="0,0,256,256" width="64px" height="64px" fill-rule="nonzero"><g fill-opacity="0" fill="#ffffff" fill-rule="nonzero" stroke="none" stroke-width="1" stroke-linecap="butt" stroke-linejoin="miter" stroke-miterlimit="10" stroke-dasharray="" stroke-dashoffset="0" font-family="none" font-weight="none" font-size="none" text-anchor="none" style="mix-blend-mode: normal"><path d="M0,256v-256h256v256z" id="bgRectangle"></path></g><g fill="#ffffff" fill-rule="nonzero" stroke="none" stroke-width="1" stroke-linecap="butt" stroke-linejoin="miter" stroke-miterlimit="10" stroke-dasharray="" stroke-dashoffset="0" font-family="none" font-weight="none" font-size="none" text-anchor="none" style="mix-blend-mode: normal"><g transform="scale(4,4)"><path d="M7,7.87891c-1.65234,0 -3,1.34766 -3,3v42c0,1.65234 1.34766,3 3,3h50c1.65234,0 3,-1.34766 3,-3v-42c0,-1.65234 -1.34766,-3 -3,-3zM7,9.87891h50c0.55078,0 1,0.44922 1,1v7h-52v-7c0,-0.55078 0.44922,-1 1,-1zM9,11.87891c-0.55469,0 -1,0.44531 -1,1v2c0,0.55469 0.44531,1 1,1c0.55469,0 1,-0.44531 1,-1v-2c0,-0.55469 -0.44531,-1 -1,-1zM14,11.87891c-0.55469,0 -1,0.44531 -1,1v2c0,0.55469 0.44531,1 1,1c0.55469,0 1,-0.44531 1,-1v-2c0,-0.55469 -0.44531,-1 -1,-1zM19,11.87891c-0.55469,0 -1,0.44531 -1,1v2c0,0.55469 0.44531,1 1,1c0.55469,0 1,-0.44531 1,-1v-2c0,-0.55469 -0.44531,-1 -1,-1zM24,11.87891c-0.55469,0 -1,0.44531 -1,1v2c0,0.55469 0.44531,1 1,1c0.55469,0 1,-0.44531 1,-1v-2c0,-0.55469 -0.44531,-1 -1,-1zM29,11.87891c-0.55469,0 -1,0.44531 -1,1v2c0,0.55469 0.44531,1 1,1c0.55469,0 1,-0.44531 1,-1v-2c0,-0.55469 -0.44531,-1 -1,-1zM34,11.87891c-0.55469,0 -1,0.44531 -1,1v2c0,0.55469 0.44531,1 1,1c0.55469,0 1,-0.44531 1,-1v-2c0,-0.55469 -0.44531,-1 -1,-1zM39,11.87891c-0.55469,0 -1,0.44531 -1,1v2c0,0.55469 0.44531,1 1,1c0.55469,0 1,-0.44531 1,-1v-2c0,-0.55469 -0.44531,-1 -1,-1zM44,11.87891c-0.55469,0 -1,0.44531 -1,1v2c0,0.55469 0.44531,1 1,1c0.55469,0 1,-0.44531 1,-1v-2c0,-0.55469 -0.44531,-1 -1,-1zM49,11.87891c-0.55469,0 -1,0.44531 -1,1v2c0,0.55469 0.44531,1 1,1c0.55469,0 1,-0.44531 1,-1v-2c0,-0.55469 -0.44531,-1 -1,-1zM54,11.87891c-0.55469,0 -1,0.44531 -1,1v2c0,0.55469 0.44531,1 1,1c0.55469,0 1,-0.44531 1,-1v-2c0,-0.55469 -0.44531,-1 -1,-1zM6,19.87891h52v33c0,0.55078 -0.44922,1 -1,1h-50c-0.55078,0 -1,-0.44922 -1,-1zM17,24c-0.55469,0 -1,0.44531 -1,1v5h-5c-0.55469,0 -1,0.44531 -1,1c0,0.55469 0.44531,1 1,1h5v8h-5c-0.55469,0 -1,0.44531 -1,1c0,0.55469 0.44531,1 1,1h5v7c0,0.55469 0.44531,1 1,1c0.55469,0 1,-0.44531 1,-1v-7h5.16797c0.55469,0 1,-0.44531 1,-1c0,-0.55469 -0.44531,-1 -1,-1h-5.16797v-15c0,-0.55469 -0.44531,-1 -1,-1zM27,24c-0.55469,0 -1,0.44531 -1,1v5h-5c-0.55469,0 -1,0.44531 -1,1c0,0.55469 0.44531,1 1,1h5v17c0,0.55469 0.44531,1 1,1c0.55469,0 1,-0.44531 1,-1v-17h8v8h-4.83203c-0.55469,0 -1,0.44531 -1,1c0,0.55469 0.44531,1 1,1h4.83203v7c0,0.55469 0.44531,1 1,1c0.55469,0 1,-0.44531 1,-1v-7h8v7c0,0.55469 0.44531,1 1,1c0.55469,0 1,-0.44531 1,-1v-7h5c0.55469,0 1,-0.44531 1,-1c0,-0.55469 -0.44531,-1 -1,-1h-5v-8h5c0.55469,0 1,-0.44531 1,-1c0,-0.55469 -0.44531,-1 -1,-1h-5v-5c0,-0.55469 -0.44531,-1 -1,-1c-0.55469,0 -1,0.44531 -1,1v15h-8v-8h4.91797c0.55469,0 1,-0.44531 1,-1c0,-0.55469 -0.44531,-1 -1,-1h-4.91797v-5c0,-0.55469 -0.44531,-1 -1,-1c-0.55469,0 -1,0.44531 -1,1v5h-8v-5c0,-0.55469 -0.44531,-1 -1,-1z"></path></g></g></svg>