<svg xmlns="http://www.w3.org/2000/svg" xmlns:xlink="http://www.w3.org/1999/xlink" viewBox="0,0,256,256" width="64px" height="64px" fill-rule="nonzero"><defs><linearGradient x1="31.716" y1="11.17" x2="32.216" y2="53.045" gradientUnits="userSpaceOnUse" id="color-1"><stop offset="0" stop-color="#b0b0b0"></stop><stop offset="1" stop-color="#2e2e2e"></stop></linearGradient><linearGradient x1="25" y1="15.667" x2="25" y2="20.692" gradientUnits="userSpaceOnUse" id="color-2"><stop offset="0" stop-color="#e8e8e8"></stop><stop offset="1" stop-color="#666666"></stop></linearGradient><linearGradient x1="55" y1="15.667" x2="55" y2="20.692" gradientUnits="userSpaceOnUse" id="color-3"><stop offset="0" stop-color="#e8e8e8"></stop><stop offset="1" stop-color="#666666"></stop></linearGradient><linearGradient x1="42" y1="31.833" x2="42" y2="38.342" gradientUnits="userSpaceOnUse" id="color-4"><stop offset="0" stop-color="#e8e8e8"></stop><stop offset="1" stop-color="#666666"></stop></linearGradient><linearGradient x1="8" y1="31.833" x2="8" y2="38.342" gradientUnits="userSpaceOnUse" id="color-5"><stop offset="0" stop-color="#e8e8e8"></stop><stop offset="1" stop-color="#666666"></stop></linearGradient></defs><g fill-opacity="0" fill="#161616" fill-rule="nonzero" stroke="none" stroke-width="1" stroke-linecap="butt" stroke-linejoin="miter" stroke-miterlimit="10" stroke-dasharray="" stroke-dashoffset="0" font-family="none" font-weight="none" font-size="none" text-anchor="none" style="mix-blend-mode: normal"><path d="M0,256v-256h256v256z" id="bgRectangle"></path></g><g fill="none" fill-rule="nonzero" stroke="none" stroke-width="1" stroke-linecap="butt" stroke-linejoin="miter" stroke-miterlimit="10" stroke-dasharray="" stroke-dashoffset="0" font-family="none" font-weight="none" font-size="none" text-anchor="none" style="mix-blend-mode: normal"><g transform="scale(4,4)"><path d="M56,39h-2v11h-11v-10.101c2.279,-0.465 4,-2.484 4,-4.899c0,-1.328 -0.529,-2.53 -1.378,-3.427l6.606,-8.257c0.547,0.286 1.143,0.487 1.772,0.594v11.09h2v-11.09c2.833,-0.478 5,-2.942 5,-5.91c0,-3.309 -2.691,-6 -6,-6c-3.309,0 -6,2.691 -6,6c0,1.588 0.625,3.03 1.635,4.104l-6.649,8.312c-0.61,-0.265 -1.28,-0.416 -1.986,-0.416c-1.017,0 -1.962,0.309 -2.753,0.833l-9.362,-9.362c0.699,-0.981 1.115,-2.177 1.115,-3.471c0,-3.309 -2.691,-6 -6,-6c-3.309,0 -6,2.691 -6,6c0,1.294 0.416,2.49 1.115,3.471l-9.362,9.362c-0.791,-0.524 -1.736,-0.833 -2.753,-0.833c-2.757,0 -5,2.243 -5,5c0,2.414 1.721,4.434 4,4.899v10.101h-4v2h58v-2h-5zM55,14c2.206,0 4,1.794 4,4c0,2.206 -1.794,4 -4,4c-2.206,0 -4,-1.794 -4,-4c0,-2.206 1.794,-4 4,-4zM42,32c1.654,0 3,1.346 3,3c0,1.654 -1.346,3 -3,3c-1.654,0 -3,-1.346 -3,-3c0,-1.654 1.346,-3 3,-3zM25,14c2.206,0 4,1.794 4,4c0,2.206 -1.794,4 -4,4c-2.206,0 -4,-1.794 -4,-4c0,-2.206 1.794,-4 4,-4zM5,35c0,-1.654 1.346,-3 3,-3c1.654,0 3,1.346 3,3c0,1.654 -1.346,3 -3,3c-1.654,0 -3,-1.346 -3,-3zM9,39.899c2.279,-0.465 4,-2.484 4,-4.899c0,-1.017 -0.309,-1.962 -0.833,-2.753l9.362,-9.362c0.722,0.515 1.562,0.871 2.471,1.025v11.09h2v-11.09c0.909,-0.154 1.749,-0.51 2.471,-1.025l9.362,9.362c-0.524,0.791 -0.833,1.736 -0.833,2.753c0,2.414 1.721,4.434 4,4.899v10.101h-15v-11h-2v11h-15z" fill="url(#color-1)"></path><path d="M25,16c-1.10457,0 -2,0.89543 -2,2c0,1.10457 0.89543,2 2,2c1.10457,0 2,-0.89543 2,-2c0,-1.10457 -0.89543,-2 -2,-2z" fill="url(#color-2)"></path><path d="M55,16c-1.10457,0 -2,0.89543 -2,2c0,1.10457 0.89543,2 2,2c1.10457,0 2,-0.89543 2,-2c0,-1.10457 -0.89543,-2 -2,-2z" fill="url(#color-3)"></path><path d="M42,32c-1.65685,0 -3,1.34315 -3,3c0,1.65685 1.34315,3 3,3c1.65685,0 3,-1.34315 3,-3c0,-1.65685 -1.34315,-3 -3,-3z" fill="url(#color-4)"></path><path d="M8,32c-1.65685,0 -3,1.34315 -3,3c0,1.65685 1.34315,3 3,3c1.65685,0 3,-1.34315 3,-3c0,-1.65685 -1.34315,-3 -3,-3z" fill="url(#color-5)"></path></g></g></svg>