<svg xmlns="http://www.w3.org/2000/svg" xmlns:xlink="http://www.w3.org/1999/xlink" viewBox="0,0,256,256" width="64px" height="64px" fill-rule="nonzero"><defs><linearGradient x1="29.5" y1="46.957" x2="29.5" y2="48.71" gradientUnits="userSpaceOnUse" id="color-1"><stop offset="0" stop-color="#e8e8e8"></stop><stop offset="1" stop-color="#666666"></stop></linearGradient><linearGradient x1="10.994" y1="8.234" x2="10.994" y2="12.703" gradientUnits="userSpaceOnUse" id="color-2"><stop offset="0" stop-color="#e8e8e8"></stop><stop offset="1" stop-color="#666666"></stop></linearGradient><linearGradient x1="53.494" y1="50.66" x2="53.494" y2="54.655" gradientUnits="userSpaceOnUse" id="color-3"><stop offset="0" stop-color="#e8e8e8"></stop><stop offset="1" stop-color="#666666"></stop></linearGradient><linearGradient x1="31.985" y1="7.17" x2="31.985" y2="59.26" gradientUnits="userSpaceOnUse" id="color-4"><stop offset="0" stop-color="#b0b0b0"></stop><stop offset="1" stop-color="#2e2e2e"></stop></linearGradient><linearGradient x1="32.5" y1="7.17" x2="32.5" y2="59.26" gradientUnits="userSpaceOnUse" id="color-5"><stop offset="0" stop-color="#b0b0b0"></stop><stop offset="1" stop-color="#2e2e2e"></stop></linearGradient><linearGradient x1="32.5" y1="7.17" x2="32.5" y2="59.26" gradientUnits="userSpaceOnUse" id="color-6"><stop offset="0" stop-color="#b0b0b0"></stop><stop offset="1" stop-color="#2e2e2e"></stop></linearGradient></defs><g fill-opacity="0" fill="#161616" fill-rule="nonzero" stroke="none" stroke-width="1" stroke-linecap="butt" stroke-linejoin="miter" stroke-miterlimit="10" stroke-dasharray="" stroke-dashoffset="0" font-family="none" font-weight="none" font-size="none" text-anchor="none" style="mix-blend-mode: normal"><path d="M0,256v-256h256v256z" id="bgRectangle"></path></g><g fill="none" fill-rule="nonzero" stroke="none" stroke-width="1" stroke-linecap="butt" stroke-linejoin="miter" stroke-miterlimit="10" stroke-dasharray="" stroke-dashoffset="0" font-family="none" font-weight="none" font-size="none" text-anchor="none" style="mix-blend-mode: normal"><g transform="scale(4,4)"><rect x="11" y="47" width="37" height="2" fill="url(#color-1)"></rect><path d="M9.337,7.993l-2.173,3.912c-0.522,0.94 0.158,2.095 1.233,2.095h5.177c1.089,0 1.777,-1.169 1.248,-2.121l-2.159,-3.886c-0.725,-1.305 -2.601,-1.305 -3.326,0z" fill="url(#color-2)"></path><path d="M56.008,51.351l-3.912,-2.173c-0.94,-0.522 -2.095,0.158 -2.095,1.233v5.177c0,1.089 1.169,1.777 2.121,1.248l3.886,-2.159c1.305,-0.726 1.305,-2.602 0,-3.326z" fill="url(#color-3)"></path><path d="M56.494,50.477l-3.912,-2.174c-0.755,-0.419 -1.65,-0.408 -2.394,0.03c-0.744,0.438 -1.188,1.214 -1.188,2.077v1.603h-35.18c-0.3,-0.853 -0.968,-1.525 -1.82,-1.829v-35.184h1.574c0.869,0 1.651,-0.447 2.092,-1.197c0.441,-0.75 0.452,-1.65 0.029,-2.41l-2.158,-3.886c-0.518,-0.934 -1.468,-1.492 -2.537,-1.492c-1.069,0 -2.019,0.558 -2.537,1.493v0l-2.173,3.911c-0.419,0.754 -0.408,1.649 0.029,2.393c0.438,0.744 1.215,1.188 2.078,1.188h1.603v35.184c-0.852,0.304 -1.52,0.976 -1.82,1.829h-2.179v2h2.187c0.304,0.841 0.969,1.502 1.812,1.802v2.185h2v-2.184c0.843,-0.301 1.507,-0.961 1.812,-1.803h35.189v1.574c0,0.87 0.447,1.652 1.197,2.093c0.383,0.226 0.807,0.338 1.229,0.338c0.404,0 0.81,-0.103 1.18,-0.309l3.887,-2.159c0.935,-0.519 1.492,-1.467 1.492,-2.537c0,-1.07 -0.557,-2.017 -1.492,-2.536zM8.043,12.797c-0.044,-0.075 -0.104,-0.229 -0.005,-0.407l2.173,-3.912c0.232,-0.418 0.629,-0.463 0.789,-0.463c0.16,0 0.557,0.045 0.789,0.464l2.158,3.886c0.104,0.186 0.041,0.346 -0.005,0.424c-0.046,0.079 -0.155,0.211 -0.368,0.211h-5.177c-0.205,0 -0.309,-0.127 -0.354,-0.203zM11,54c-0.552,0 -1,-0.449 -1,-1c0,-0.551 0.448,-1 1,-1c0.552,0 1,0.449 1,1c0,0.551 -0.448,1 -1,1zM55.523,53.802l-3.888,2.159c-0.186,0.104 -0.346,0.041 -0.424,-0.005c-0.079,-0.046 -0.211,-0.156 -0.211,-0.369v-5.177c0,-0.204 0.127,-0.309 0.202,-0.354c0.046,-0.027 0.119,-0.059 0.209,-0.059c0.061,0 0.128,0.014 0.199,0.054l3.912,2.173c0.418,0.232 0.463,0.629 0.463,0.789c0,0.16 -0.044,0.556 -0.462,0.789z" fill="url(#color-4)"></path><path d="M32.5,47c7.995,0 14.5,-6.505 14.5,-14.5v-15.5h-2v15.5c0,6.893 -5.607,12.5 -12.5,12.5c-6.893,0 -12.5,-5.607 -12.5,-12.5v-15.5h-2v15.5c0,7.995 6.505,14.5 14.5,14.5z" fill="url(#color-5)"></path><path d="M32.5,42.985c5.79,0 10.5,-4.71 10.5,-10.5h-2c0,4.687 -3.813,8.5 -8.5,8.5c-4.687,0 -8.5,-3.813 -8.5,-8.5h-2c0,5.789 4.71,10.5 10.5,10.5z" fill="url(#color-6)"></path></g></g></svg>