<svg xmlns="http://www.w3.org/2000/svg" xmlns:xlink="http://www.w3.org/1999/xlink" viewBox="0,0,256,256" width="64px" height="64px" fill-rule="nonzero"><g fill-opacity="0" fill="#ffffff" fill-rule="nonzero" stroke="none" stroke-width="1" stroke-linecap="butt" stroke-linejoin="miter" stroke-miterlimit="10" stroke-dasharray="" stroke-dashoffset="0" font-family="none" font-weight="none" font-size="none" text-anchor="none" style="mix-blend-mode: normal"><path d="M0,256v-256h256v256z" id="bgRectangle"></path></g><g fill="none" fill-rule="nonzero" stroke="none" stroke-width="1" stroke-linecap="butt" stroke-linejoin="miter" stroke-miterlimit="10" stroke-dasharray="" stroke-dashoffset="0" font-family="none" font-weight="none" font-size="none" text-anchor="none" style="mix-blend-mode: normal"><g transform="scale(2,2)"><path d="M124,124h-110c-5.5,0 -10,-4.5 -10,-10v-105c0,-2.8 2.2,-5 5,-5h112c1.7,0 3,1.3 3,3z" fill-opacity="0" fill="#ffffff"></path><path d="M124,127h-5c-1.7,0 -3,-1.3 -3,-3c0,-1.7 1.3,-3 3,-3h5c1.7,0 3,1.3 3,3c0,1.7 -1.3,3 -3,3z" fill="#444b54"></path><g><path d="M30.2,100.2c0.8,4 4.3,6.8 8.3,6.8h1.2c3.9,0 7.3,-2.6 8.2,-6.4l12.9,-51.7c0.3,-1.1 1.3,-1.9 2.4,-1.9h1.4c1.1,0 2.1,0.8 2.4,1.9l8,31.7c0.9,3.8 4.3,6.4 8.2,6.4h1.4c3.9,0 7.3,-2.6 8.2,-6.4l12,-47.9c0.4,-1.6 -0.6,-3.2 -2.2,-3.6c-1.6,-0.4 -3.2,0.6 -3.6,2.2l-12,47.9c-0.3,1.1 -1.3,1.9 -2.4,1.9h-1.4c-1.1,0 -2.1,-0.8 -2.4,-1.9l-7.8,-31.8c-1,-3.8 -4.4,-6.4 -8.3,-6.4h-1.4c-3.9,0 -7.3,2.6 -8.2,6.4l-13,51.7c-0.3,1.1 -1.3,1.9 -2.4,1.9h-1.2c-1.2,0 -2.2,-0.8 -2.4,-2l-12.2,-60.6c-0.2,-1.4 -1.5,-2.4 -2.9,-2.4v0c-1.9,0 -3.3,1.7 -2.9,3.6z" fill="#ebebeb"></path><path d="M17.8,7.8c-0.9,-4.6 -5.5,-7.7 -10.3,-6.6c-3.8,0.9 -6.5,4.6 -6.5,8.6v104.2c0,7.2 5.8,13 13,13h84.8c1.6,0 3.1,-1.2 3.2,-2.8c0.1,-1.7 -1.3,-3.2 -3,-3.2h-85c-3.9,0 -7,-3.1 -7,-7v-104.4c0,-1.2 0.8,-2.3 2,-2.6c1.4,-0.3 2.7,0.6 3,2l3.3,16.6c0.3,1.4 1.5,2.4 2.9,2.4v0c1.9,0 3.3,-1.7 2.9,-3.6z" fill="#444b54"></path></g></g></g></svg>